<svg xmlns="http://www.w3.org/2000/svg" viewBox="0 0 512 512">
  <!-- Background -->
  <rect width="512" height="512" rx="96" fill="#040404"/>
  <!-- Orange accent bar at top -->
  <rect x="0" y="0" width="512" height="8" rx="4" fill="#FF5A09"/>
  <!-- Car silhouette body -->
  <path d="M96 320 L130 240 Q140 210 160 205 L200 200 L230 170 Q250 148 290 148 L320 148 Q355 148 375 170 L405 200 L420 205 Q440 210 450 240 L416 320 Z"
        fill="#FF5A09" opacity="0.15"/>
  <path d="M96 320 L130 240 Q140 210 160 205 L200 200 L230 170 Q250 148 290 148 L320 148 Q355 148 375 170 L405 200 L420 205 Q440 210 450 240 L416 320 Z"
        fill="none" stroke="#FF5A09" stroke-width="10" stroke-linejoin="round"/>
  <!-- Wheels -->
  <circle cx="165" cy="325" r="42" fill="#040404" stroke="#FF5A09" stroke-width="10"/>
  <circle cx="165" cy="325" r="18" fill="#FF5A09" opacity="0.6"/>
  <circle cx="348" cy="325" r="42" fill="#040404" stroke="#FF5A09" stroke-width="10"/>
  <circle cx="348" cy="325" r="18" fill="#FF5A09" opacity="0.6"/>
  <!-- Ground line -->
  <line x1="80" y1="367" x2="432" y2="367" stroke="#FF5A09" stroke-width="4" opacity="0.3"/>
  <!-- SC text -->
  <text x="256" y="420" text-anchor="middle"
        font-family="Georgia, serif" font-size="52" font-weight="700"
        fill="#FF5A09" letter-spacing="6">SYED CARS</text>
</svg>
