<svg xmlns="http://www.w3.org/2000/svg" viewBox="0 0 512 512">
  <!-- Full bleed background for maskable (safe zone is center 80%) -->
  <rect width="512" height="512" fill="#040404"/>
  <!-- Car silhouette body -->
  <path d="M106 315 L138 240 Q148 212 168 207 L205 202 L233 175 Q252 155 290 155 L322 155 Q356 155 375 175 L404 202 L444 207 Q460 215 460 240 L406 315 Z"
        fill="#FF5A09" opacity="0.18"/>
  <path d="M106 315 L138 240 Q148 212 168 207 L205 202 L233 175 Q252 155 290 155 L322 155 Q356 155 375 175 L404 202 L444 207 Q460 215 460 240 L406 315 Z"
        fill="none" stroke="#FF5A09" stroke-width="11" stroke-linejoin="round"/>
  <!-- Wheels -->
  <circle cx="172" cy="320" r="40" fill="#040404" stroke="#FF5A09" stroke-width="11"/>
  <circle cx="172" cy="320" r="16" fill="#FF5A09" opacity="0.65"/>
  <circle cx="348" cy="320" r="40" fill="#040404" stroke="#FF5A09" stroke-width="11"/>
  <circle cx="348" cy="320" r="16" fill="#FF5A09" opacity="0.65"/>
  <!-- Brand text -->
  <text x="256" y="415" text-anchor="middle"
        font-family="Georgia, serif" font-size="46" font-weight="700"
        fill="#FF5A09" letter-spacing="5">SYED CARS</text>
</svg>
